<?xml version="1.0" standalone="no"?>
<!DOCTYPE svg PUBLIC "-//W3C//DTD SVG 20010904//EN"
 "http://www.w3.org/TR/2001/REC-SVG-20010904/DTD/svg10.dtd">
<svg version="1.0" xmlns="http://www.w3.org/2000/svg"
 width="512.000000pt" height="512.000000pt" viewBox="0 0 512.000000 512.000000"
 preserveAspectRatio="xMidYMid meet">
<metadata>
Created by potrace 1.14, written by Peter Selinger 2001-2017
</metadata>
<g transform="translate(0.000000,512.000000) scale(0.100000,-0.100000)"
fill="#000000" stroke="none">
<path d="M1782 4134 c-78 -29 -107 -48 -165 -108 -43 -44 -120 -192 -657
-1267 -335 -669 -616 -1242 -625 -1273 -20 -69 -15 -181 12 -252 43 -112 131
-201 240 -246 l58 -23 1894 -3 c1663 -2 1902 0 1953 13 193 49 320 227 304
424 -8 104 -26 138 -281 536 -116 180 -307 480 -325 510 -77 128 -342 535
-367 564 -46 54 -133 111 -211 137 -56 19 -84 23 -167 20 -87 -2 -108 -6 -168
-34 -86 -39 -97 -49 -239 -190 -72 -70 -121 -112 -127 -107 -7 8 -153 270
-433 775 -14 25 -38 68 -53 95 -15 28 -55 99 -88 158 -94 171 -171 241 -303
280 -75 22 -180 18 -252 -9z"/>
</g>
</svg>
